<?xml version="1.0" encoding="UTF-8" standalone="no"?>
<!-- Created with Inkscape (http://www.inkscape.org/) -->

<svg
   width="20mm"
   height="20mm"
   viewBox="0 0 20 20"
   version="1.1"
   id="svg1"
   inkscape:version="1.4.2 (ebf0e940d0, 2025-05-08)"
   sodipodi:docname="logo.svg"
   xmlns:inkscape="http://www.inkscape.org/namespaces/inkscape"
   xmlns:sodipodi="http://sodipodi.sourceforge.net/DTD/sodipodi-0.dtd"
   xmlns:xlink="http://www.w3.org/1999/xlink"
   xmlns="http://www.w3.org/2000/svg"
   xmlns:svg="http://www.w3.org/2000/svg">
  <sodipodi:namedview
     id="namedview1"
     pagecolor="#ffffff"
     bordercolor="#000000"
     borderopacity="0.25"
     inkscape:showpageshadow="2"
     inkscape:pageopacity="0.0"
     inkscape:pagecheckerboard="0"
     inkscape:deskcolor="#d1d1d1"
     inkscape:document-units="mm"
     inkscape:zoom="13.312663"
     inkscape:cx="26.854131"
     inkscape:cy="29.220299"
     inkscape:window-width="1920"
     inkscape:window-height="1011"
     inkscape:window-x="0"
     inkscape:window-y="0"
     inkscape:window-maximized="1"
     inkscape:current-layer="layer1"
     showgrid="false" />
  <defs
     id="defs1">
    <linearGradient
       id="linearGradient3"
       inkscape:collect="always">
      <stop
         style="stop-color:#ffffff;stop-opacity:1;"
         offset="0"
         id="stop3" />
      <stop
         style="stop-color:#ffffff;stop-opacity:1;"
         offset="1"
         id="stop4" />
    </linearGradient>
    <linearGradient
       id="linearGradient1"
       inkscape:collect="always">
      <stop
         style="stop-color:#00dec2;stop-opacity:1;"
         offset="0"
         id="stop1" />
      <stop
         style="stop-color:#004b9b;stop-opacity:1;"
         offset="1"
         id="stop2" />
    </linearGradient>
    <linearGradient
       inkscape:collect="always"
       xlink:href="#linearGradient1"
       id="linearGradient2"
       x1="2.9289305"
       y1="2.9289312"
       x2="17.071062"
       y2="17.071064"
       gradientUnits="userSpaceOnUse" />
    <linearGradient
       inkscape:collect="always"
       xlink:href="#linearGradient3"
       id="linearGradient4"
       x1="-1.3162673"
       y1="18.058586"
       x2="10.530816"
       y2="6.211503"
       gradientUnits="userSpaceOnUse" />
  </defs>
  <g
     inkscape:label="Layer 1"
     inkscape:groupmode="layer"
     id="layer1">
    <circle
       style="fill:url(#linearGradient2);stroke:none;stroke-width:1;stroke-linecap:round;stroke-linejoin:bevel"
       id="path1-5-0"
       cx="10"
       cy="10"
       r="10" />
    <path
       style="font-size:16px;font-family:raustila;-inkscape-font-specification:raustila;fill:#ffffff;stroke-linecap:round;stroke-linejoin:bevel"
       d="m 1.5787027,13.17504 c 0.3428571,-0.16 0.72,-0.32 1.0628571,-0.457143 0.1942858,-0.08 0.4,-0.125714 0.5942858,-0.16 0.1828571,-0.03429 0.3542857,0 0.4457142,0.16 -0.011429,0.114286 -0.1257142,0.114286 -0.1828571,0.16 -0.5942857,0.274286 -1.1771429,0.56 -1.7485714,0.834286 l -0.045714,0.04571 c 0.034286,0.262857 0.08,0.502857 0.091429,0.754286 0.08,0.788571 0.1028571,1.565714 -0.1942858,2.331428 -0.4228571,1.177143 -1.2228571,1.954286 -2.45714282,2.217143 -0.62857138,0.125714 -1.24571428,0.137143 -1.86285718,-0.114286 -0.1828571,-0.08 -0.3771428,-0.205714 -0.5371428,-0.342857 -0.4228572,-0.365714 -0.5142857,-0.822857 -0.3428572,-1.371428 0.1714286,-0.56 0.5142858,-0.994286 0.9257143,-1.394286 0.4457143,-0.445714 0.9828572,-0.8 1.5085715,-1.142857 0.37714281,-0.251429 0.77714281,-0.457143 1.17714281,-0.697143 0.10285714,-0.06857 0.18285714,-0.114286 0.30857143,-0.194286 -0.0457143,-0.274285 -0.08,-0.56 -0.16,-0.834285 -0.22857143,-0.777143 -0.44571429,-1.565715 -0.68571429,-2.354286 -0.19428571,-0.6171429 -0.35428571,-1.2457144 -0.43428571,-1.8971429 -0.08,-1.0057143 0.11428571,-1.92 0.78857143,-2.7085715 0.41142857,-0.48 0.94857143,-0.7542857 1.56571433,-0.8342857 0.7085714,-0.091429 1.3485714,0.057143 1.9428571,0.4228572 0.2057143,0.1257142 0.4,0.2971428 0.5828571,0.48 0.1371429,0.1257142 0.1371429,0.2057142 0.057143,0.3771428 -0.2171429,0.4685714 -0.4342857,0.9028572 -0.6171429,1.36 C 3.2358456,8.1578971 3.144417,8.4893256 3.0758456,8.8436113 3.0415598,9.0378971 3.0415598,9.2550399 3.064417,9.4493256 3.0758456,9.7578971 2.9387027,9.8721828 2.664417,9.7350399 2.2301313,9.5521828 2.0358456,9.1978971 2.0015598,8.7521828 c 0,-0.2971429 0.034286,-0.5828572 0.1371429,-0.8685715 0.1828571,-0.56 0.4,-1.1314285 0.6057143,-1.7142857 l 0.091429,-0.24 c -0.1942858,-0.057143 -0.3771429,-0.034286 -0.56,0.022857 -0.4457143,0.1028571 -0.8571429,0.2971428 -1.1771429,0.6514285 -0.61714286,0.64 -0.88,1.3942858 -0.8,2.2742858 0.0571429,0.6514285 0.21714285,1.2799999 0.43428571,1.8971429 z m -1.17714286,1.382857 c -0.0457143,0 -0.08,0 -0.0914286,0.01143 -0.83428572,0.525714 -1.61142857,1.142857 -2.22857147,1.908571 -0.2628571,0.32 -0.4571428,0.674286 -0.5371428,1.085714 -0.045714,0.228572 -0.068571,0.468572 0.057143,0.685715 0.08,0.114285 0.16,0.16 0.2971429,0.148571 0.7428571,-0.06857 1.32571428,-0.434286 1.77142857,-1.005714 0.65142857,-0.834286 0.76571428,-1.817143 0.72,-2.834286 z m 3.98858136,-1.52 c -0.2285714,0.605714 -0.3885714,1.245714 -0.32,1.908571 0.011429,0.125715 0.057143,0.251429 0.1257143,0.365715 0.3885714,0.788571 2.3542857,-0.96 3.3714286,-2.4 0.1828571,-0.24 0.3542857,-0.114286 0.2628571,0.114285 -0.64,0.925715 -1.36,1.965715 -2.4228571,2.537143 -0.8114286,0.548572 -1.8971429,0.297143 -2.3657143,-0.571428 -0.2857143,-0.514286 -0.3542857,-1.074286 -0.2171429,-1.634286 0.1828572,-0.857143 0.6057143,-1.577143 1.2571429,-2.171429 0.2628571,-0.24 0.5257143,-0.468571 0.8342857,-0.674285 0.3885714,-0.274286 0.8457143,-0.365715 1.3257143,-0.285715 0.32,0.04571 0.6057143,0.171429 0.8,0.445715 0.1485714,0.171428 0.1828571,0.365714 0.1142857,0.571428 -0.045714,0.194286 -0.1257143,0.377143 -0.2742857,0.514286 -0.5714286,0.662857 -1.2914286,1.074286 -2.16,1.222857 -0.1142857,0.01143 -0.2057143,0.02286 -0.3314286,0.05714 z m 0.1371429,-0.377143 c 0.56,-0.148571 1.04,-0.32 1.44,-0.64 0.1942857,-0.16 0.3542857,-0.354286 0.5028571,-0.537143 0.1257143,-0.16 0.16,-0.342857 0.1257143,-0.56 -0.034286,-0.205714 -0.16,-0.285714 -0.3542857,-0.205714 -0.1714286,0.08 -0.3542857,0.182857 -0.5142857,0.308571 -0.4114286,0.354286 -0.7428572,0.777143 -1.0171429,1.28 z m 5.6914239,0.857143 c -0.194286,0.285714 -0.3999999,0.56 -0.5942856,0.845714 -0.2628572,0.377143 -0.48,0.754286 -0.7657143,1.108572 -0.1942857,0.262857 -0.4,0.525714 -0.6171429,0.765714 -0.16,0.16 -0.3771428,0.285714 -0.6171428,0.228571 -0.3085714,-0.08 -0.5714286,-0.228571 -0.6857143,-0.548571 -0.1257143,-0.32 -0.1485714,-0.651429 -0.1142857,-1.005714 0.068571,-0.56 0.2857143,-1.074286 0.5257143,-1.565715 0.3657143,-0.742857 0.8342857,-1.428571 1.36,-2.045714 0.2628571,-0.32 0.56,-0.617143 0.9485714,-0.8 0.4457139,-0.24 0.8799999,-0.217143 1.2799999,0.08 0.16,0.125714 0.32,0.262857 0.48,0.411429 0.09143,0.114285 0.16,0.251428 0.137143,0.4 0,0.16 -0.102857,0.24 -0.251429,0.16 -0.09143,-0.03429 -0.171428,-0.137143 -0.24,-0.228572 -0.205714,-0.308571 -0.285714,-0.331428 -0.617142,-0.148571 -0.262858,0.16 -0.4800005,0.377143 -0.6742862,0.617143 -0.8685714,1.005714 -1.52,2.137143 -1.8857143,3.44 -0.034286,0.102857 -0.068571,0.217143 -0.1028571,0.377143 0.08,-0.05714 0.1371428,-0.08 0.16,-0.114286 0.2628571,-0.297143 0.5371428,-0.617143 0.7771428,-0.937143 0.6057143,-0.765714 1.2114286,-1.531429 1.8057148,-2.285714 0.08,-0.09143 0.16,-0.16 0.217142,-0.251429 0.08,-0.137143 0.217143,-0.148571 0.342858,-0.137143 0.331428,0.06857 0.56,0.297143 0.56,0.64 0,0.24 -0.02286,0.48 -0.08,0.708572 -0.194286,0.8 -0.4,1.588571 -0.64,2.365714 -0.114286,0.422857 -0.274286,0.822857 -0.422858,1.222857 -0.01143,0.08 -0.02286,0.16 -0.01143,0.251429 l 0.125714,-0.228572 c 0.422857,-0.925714 0.845714,-1.851428 1.28,-2.765714 0.205714,-0.434286 0.445714,-0.834286 0.674286,-1.245714 0.03429,-0.06857 0.114286,-0.137143 0.171428,-0.148572 0.08,-0.03429 0.16,0 0.194286,0.04571 0.03429,0.02286 0.02286,0.114285 -0.01143,0.182857 -0.274286,0.537143 -0.56,1.085714 -0.822858,1.645714 -0.297142,0.685714 -0.582857,1.394286 -0.88,2.091429 -0.09143,0.262857 -0.182857,0.525714 -0.297142,0.788571 -0.06857,0.16 -0.16,0.32 -0.262858,0.48 -0.05714,0.114286 -0.171428,0.171429 -0.297142,0.205714 -0.32,0.06857 -0.6857148,-0.08 -0.8457148,-0.365714 -0.1142857,-0.205714 -0.16,-0.4 -0.1942857,-0.628571 -0.034286,-0.354286 0.034286,-0.697143 0.1142857,-1.04 0.1828572,-0.811429 0.4571429,-1.6 0.7657148,-2.377143 0.01143,-0.05714 0.03428,-0.102857 0.04571,-0.148572 z"
       id="text1-0-6"
       transform="rotate(-28.000466)"
       aria-label="Sea" />
  </g>
</svg>
